<svg width="1085" height="37" viewBox="0 0 1085 37" fill="none" xmlns="http://www.w3.org/2000/svg">
<g clip-path="url(#clip0_29_234)">
<mask id="mask0_29_234" style="mask-type:luminance" maskUnits="userSpaceOnUse" x="0" y="7" width="139" height="23">
<path d="M138.262 7.94092H0V29.1162H138.262V7.94092Z" fill="white"/>
</mask>
<g mask="url(#mask0_29_234)">
<mask id="mask1_29_234" style="mask-type:luminance" maskUnits="userSpaceOnUse" x="0" y="7" width="139" height="23">
<path d="M138.267 7.94092H0.00488281V29.1162H138.267V7.94092Z" fill="white"/>
</mask>
<g mask="url(#mask1_29_234)">
<path d="M56.251 8.03174V28.8453H52.0204V15.3098L46.3767 28.8453H43.1754L37.5055 15.3098V28.8453H33.2793V8.03174H38.0769L44.7805 23.5095L51.4796 8.03174H56.251Z" fill="#9ca3af"/>
<path d="M60.0413 16.0849C60.643 14.8608 61.5861 13.8316 62.7595 13.1184C63.9332 12.4051 65.2885 12.0373 66.6664 12.0583C67.804 12.0332 68.9299 12.2893 69.9418 12.8034C70.8242 13.2558 71.5931 13.8974 72.1923 14.681V12.3253H76.4534V28.8452H72.1923V26.4292C71.6098 27.2404 70.8378 27.9007 69.9418 28.3543C68.9216 28.8767 67.7847 29.1373 66.6357 29.1123C65.276 29.126 63.9409 28.7537 62.7891 28.0399C61.6086 27.3052 60.6575 26.2616 60.0413 25.0253C59.3442 23.6314 58.9971 22.0923 59.0294 20.5379C58.9968 18.9946 59.3441 17.4666 60.0413 16.0849ZM71.586 17.9755C71.2101 17.2808 70.6451 16.7036 69.9549 16.3089C69.2846 15.925 68.5228 15.7243 67.7479 15.7275C66.9717 15.719 66.208 15.9215 65.5404 16.3126C64.8727 16.7037 64.3268 17.2686 63.9622 17.9454C63.5314 18.7387 63.3179 19.6294 63.3429 20.5293C63.3211 21.4371 63.5343 22.3353 63.9622 23.1391C64.3355 23.8502 64.8999 24.4462 65.5934 24.8616C66.2415 25.2546 66.9875 25.4619 67.7479 25.4603C68.5228 25.4635 69.2846 25.2629 69.9549 24.879C70.6481 24.4802 71.2135 23.8967 71.586 23.195C71.9821 22.3807 72.1878 21.4888 72.1878 20.5852C72.1878 19.6818 71.9821 18.7899 71.586 17.9755Z" fill="#9ca3af"/>
<path d="M85.207 15.7571V23.7458C85.1861 23.9645 85.2118 24.1852 85.2823 24.3936C85.353 24.602 85.4669 24.7936 85.6169 24.9559C86.014 25.2404 86.5024 25.3721 86.9908 25.3262H88.9535V28.8447H86.2974C82.7355 28.8447 80.9531 27.135 80.9502 23.7156V15.7571H78.957V12.3119H80.9502V8.24219H85.207V12.3248H88.9535V15.77L85.207 15.7571Z" fill="#9ca3af"/>
<path d="M107.134 21.8386H94.9217C94.9613 22.9 95.4163 23.905 96.1908 24.6421C96.9382 25.3201 97.9241 25.6832 98.9385 25.6542C99.6363 25.6965 100.331 25.528 100.929 25.171C101.527 24.814 102.001 24.2856 102.288 23.656H106.85C106.381 25.2275 105.406 26.6051 104.072 27.5792C102.61 28.6322 100.834 29.1719 99.0257 29.1123C97.514 29.1356 96.0221 28.7722 94.6949 28.0572C93.4251 27.3583 92.3875 26.3112 91.7073 25.0427C90.9706 23.6653 90.6014 22.1254 90.6343 20.5681C90.5981 19.0043 90.961 17.4567 91.6898 16.0678C92.3623 14.8101 93.3915 13.773 94.6513 13.0834C95.9878 12.4035 97.4685 12.0463 98.9719 12.0411C100.475 12.0358 101.959 12.3827 103.3 13.0532C104.54 13.7116 105.559 14.7128 106.231 15.9343C106.943 17.2481 107.302 18.7206 107.273 20.2107C107.271 20.7562 107.225 21.3006 107.134 21.8386ZM102.877 19.035C102.886 18.5453 102.784 18.0597 102.581 17.613C102.377 17.1663 102.076 16.7695 101.699 16.4511C100.915 15.7987 99.9156 15.4539 98.8906 15.4821C97.9212 15.4549 96.9772 15.7902 96.2475 16.4209C95.5059 17.1059 95.041 18.0331 94.9391 19.0307L102.877 19.035Z" fill="#9ca3af"/>
<path d="M116.387 12.8334C117.304 12.3267 118.341 12.0696 119.392 12.0884V16.4853H118.275C116.947 16.4853 115.945 16.7925 115.27 17.4069C114.594 18.0228 114.258 19.0994 114.258 20.6282V28.8451H110.032V12.3252H114.258V14.9091C114.777 14.0493 115.51 13.3347 116.387 12.8334Z" fill="#9ca3af"/>
<path d="M121.852 16.0843C122.469 14.8564 123.42 13.8228 124.6 13.0999C125.769 12.4021 127.115 12.0411 128.481 12.0577C129.624 12.0302 130.757 12.2864 131.774 12.8027C132.656 13.2552 133.426 13.8967 134.025 14.6804V12.3247H138.281V28.8446H134.025V26.4286C133.44 27.2377 132.669 27.8976 131.774 28.3537C130.754 28.8756 129.617 29.1362 128.469 29.1116C127.107 29.1253 125.771 28.7533 124.617 28.0393C123.438 27.302 122.488 26.2592 121.869 25.0247C121.172 23.6307 120.825 22.0916 120.857 20.5372C120.819 18.9954 121.161 17.4674 121.852 16.0843ZM133.401 17.9749C133.026 17.2805 132.463 16.7032 131.774 16.3082C131.104 15.9243 130.342 15.7236 129.567 15.7268C128.79 15.7191 128.026 15.9217 127.359 16.3127C126.69 16.7038 126.143 17.2682 125.777 17.9447C125.346 18.7381 125.133 19.6288 125.158 20.5286C125.137 21.4364 125.35 22.3346 125.777 23.1384C126.152 23.8487 126.716 24.4443 127.409 24.861C128.059 25.2536 128.805 25.4607 129.567 25.4596C130.343 25.459 131.105 25.2538 131.774 24.8653C132.464 24.47 133.027 23.8909 133.401 23.1944C133.8 22.3809 134.008 21.4886 134.008 20.5847C134.008 19.6807 133.8 18.7884 133.401 17.9749Z" fill="#9ca3af"/>
<path fill-rule="evenodd" clip-rule="evenodd" d="M25.1437 24.0344V24.3144C25.1464 24.4347 25.1492 24.5555 25.152 24.6765C25.1716 25.5219 25.1916 26.385 25.1916 27.2515V27.2539C25.1872 27.6301 25.1766 28.5434 24.2845 28.5434H21.3798C20.4988 28.5434 19.4346 28.5392 18.2134 28.5047C17.3149 28.4659 16.3903 28.4659 15.518 28.4659H13.5945H13.1977H11.3048H10.5372H9.47738C9.29419 28.4685 9.10903 28.4688 8.92367 28.469C8.49123 28.4696 8.05772 28.4702 7.64558 28.5003C7.05681 28.5434 6.48112 28.5434 5.90108 28.5434L4.72776 28.5478H3.98633C3.45859 28.5821 2.9134 28.5821 2.37258 28.5821H1.45232H1.24734C1.12543 28.589 1.00345 28.5703 0.889279 28.5276C0.775109 28.4848 0.671294 28.419 0.584551 28.3341C0.497807 28.2493 0.430069 28.1474 0.385715 28.0351C0.341362 27.9228 0.321381 27.8025 0.327067 27.6821C0.252922 25.5159 0.213668 23.733 0.213668 22.0104V19.9303V17.1311C0.209308 16.7004 0.165693 16.2224 0.117717 15.7185C-0.0327286 14.7365 -0.0327286 13.7377 0.117717 12.7556C0.24856 12.1785 0.928947 11.7479 3.10967 10.7358L3.54582 10.5463C4.53441 10.0726 5.52445 9.59172 6.51597 9.10365C7.19198 8.77205 7.88546 8.4749 8.56148 8.19067L8.73594 8.11746C9.03353 7.99176 9.35437 7.92869 9.67801 7.93227C10.6701 7.93227 11.6537 8.46303 12.4473 8.89131L12.4737 8.90555L12.8052 9.08643L12.9796 9.17687L15.0862 10.2923L15.4134 10.4645C16.2637 10.9081 16.508 11.076 16.4819 11.9718C16.4819 12.0269 16.4806 12.0868 16.4793 12.1519C16.4763 12.3004 16.4728 12.4758 16.4819 12.6824C16.4872 12.805 16.4978 12.9269 16.5084 13.0487C16.5235 13.222 16.5385 13.395 16.5385 13.5695V13.6212L16.6912 13.548C17.1431 13.3162 17.6431 13.1909 18.1523 13.182C18.8352 13.2227 19.5021 13.403 20.1106 13.7117L20.3069 13.7935C21.4076 14.2853 22.4677 14.8613 23.4777 15.5161L23.5213 15.542L23.6085 15.5979C23.9998 15.813 24.3618 16.0763 24.6858 16.3817C24.8089 16.4928 24.9049 16.6299 24.9668 16.7828C25.0287 16.9356 25.0549 17.1003 25.0434 17.2646V17.3292V18.1905C25.0478 18.7762 25.0565 19.3834 25.0957 19.9691C25.1437 20.8175 25.1437 21.6701 25.1437 22.497V24.0344ZM15.9187 27.1269L17.6633 27.157C17.6502 26.9208 17.6341 26.6716 17.6174 26.4131C17.5562 25.4651 17.4869 24.3929 17.528 23.3844C17.5451 22.5665 17.5742 21.7493 17.6033 20.9322C17.6486 19.6627 17.6938 18.3935 17.6938 17.1228C17.6947 16.9931 17.6949 16.8635 17.695 16.7338C17.6955 16.2476 17.6961 15.7615 17.7374 15.2753C17.7415 15.2288 17.747 15.1828 17.7525 15.1362C17.7644 15.036 17.7766 14.9334 17.7766 14.8188L17.4147 14.9953C16.9002 15.2493 16.3745 15.477 15.8479 15.7051C15.4459 15.8792 15.0435 16.0535 14.645 16.2399C13.4195 16.8084 12.1591 17.2951 10.8855 17.7257C10.833 17.7362 10.7866 17.7661 10.7557 17.8094C10.7249 17.8526 10.712 17.9059 10.7198 17.9582C10.7067 19.4526 10.6413 20.9686 10.541 22.4672C10.5432 22.522 10.5306 22.5764 10.5045 22.6247C10.4785 22.6732 10.4399 22.7139 10.3927 22.7428C10.2016 22.8564 9.97375 22.8934 9.75592 22.8462C9.7039 22.838 9.65651 22.812 9.62217 22.7725C9.58781 22.733 9.56875 22.6829 9.56838 22.6308C9.53349 22.2131 9.53349 21.804 9.53349 21.3733V15.5035V13.8498C9.52798 13.4471 9.51627 13.0451 9.50457 12.6433C9.4885 12.0912 9.47243 11.5393 9.47243 10.986C9.44322 10.474 9.47838 9.96051 9.5771 9.45712L9.38956 9.53894C9.08835 9.68949 8.78476 9.83221 8.48149 9.97478C8.07339 10.1666 7.66587 10.3582 7.26553 10.5682C6.86428 10.7792 6.47175 10.9644 6.0356 11.1367C5.94078 11.1761 5.84589 11.2153 5.751 11.2546C5.0472 11.5459 4.34323 11.8373 3.66297 12.1789C3.05205 12.557 2.41013 12.884 1.74394 13.1564C1.63054 13.1995 1.63054 13.2297 1.63054 13.3244C1.75733 14.0104 1.81286 14.7073 1.79628 15.4045C1.79166 16.1159 1.80905 16.8285 1.82644 17.5411C1.84189 18.1743 1.85734 18.8075 1.85734 19.4397C1.86519 20.5564 1.8094 21.6697 1.75363 22.7827C1.74746 22.9058 1.74129 23.0289 1.73521 23.152C1.72028 23.6996 1.7283 24.2461 1.73631 24.7921C1.74468 25.3626 1.75304 25.9325 1.73521 26.5024C1.71777 26.6661 1.72358 26.8297 1.7294 26.9934C1.7323 27.0752 1.73521 27.157 1.73521 27.2388C1.73521 27.3552 1.76139 27.3552 1.87042 27.3552C2.09722 27.3077 3.1745 27.3077 3.44491 27.3077C3.73159 27.3006 4.01902 27.2972 4.30659 27.2937C4.71025 27.2889 5.11417 27.2841 5.5166 27.269C6.06062 27.2461 6.60464 27.2297 7.14867 27.2133C7.93489 27.1896 8.7211 27.1658 9.50732 27.1226C10.1179 27.0738 10.7285 27.0901 11.3391 27.1063C11.6444 27.1145 11.9497 27.1226 12.255 27.1226C12.3902 27.1226 12.4164 27.0881 12.4164 26.959C12.3902 26.2569 12.3728 25.5507 12.4164 24.8488C12.4164 24.5386 12.5428 24.431 12.8525 24.3793C13.2506 24.3105 13.6527 24.2673 14.0562 24.2501C14.5521 24.1704 15.059 24.188 15.5479 24.3018L15.5492 24.3023C15.7402 24.3752 15.8314 24.41 15.8314 24.642V25.344C15.8794 25.9028 15.8794 26.4647 15.8314 27.0235C15.827 27.0925 15.8357 27.1269 15.9187 27.1269Z" fill="#9ca3af"/>
</g>
</g>
</g>
<g clip-path="url(#clip1_29_234)">
<mask id="mask2_29_234" style="mask-type:luminance" maskUnits="userSpaceOnUse" x="179" y="5" width="75" height="27">
<path d="M253.248 5.58789H179.303V31.4687H253.248V5.58789Z" fill="white"/>
</mask>
<g mask="url(#mask2_29_234)">
<path d="M179.305 30.9717V5.58789H191.027C193.835 5.58789 195.948 6.20326 197.364 7.43399C198.756 8.64104 199.452 10.2268 199.452 12.1912C199.452 14.6763 198.085 16.3686 195.35 17.268V17.3745C196.815 17.8005 197.987 18.5697 198.866 19.6821C199.77 20.7945 200.221 22.1199 200.221 23.6583C200.221 25.9067 199.452 27.67 197.914 28.9481C196.326 30.2971 194.128 30.9717 191.32 30.9717H179.305ZM184.616 19.6111V26.7114H190.734C192.004 26.7114 193.005 26.4037 193.738 25.7884C194.47 25.1493 194.837 24.3091 194.837 23.2678C194.837 22.1081 194.434 21.2087 193.628 20.5696C192.846 19.9306 191.833 19.6111 190.587 19.6111H184.616ZM184.616 15.8124H190.367C191.54 15.8124 192.48 15.5521 193.188 15.0313C193.896 14.487 194.25 13.7296 194.25 12.7593C194.25 11.8125 193.908 11.0788 193.225 10.5581C192.565 10.0374 191.65 9.77711 190.477 9.77711H184.616V15.8124Z" fill="#9ca3af"/>
<path d="M207.736 12.7599V15.671H207.846C208.432 14.606 209.079 13.8249 209.788 13.3279C210.496 12.8072 211.387 12.5469 212.462 12.5469C212.975 12.5469 213.365 12.5942 213.634 12.6889V16.9136H213.524C211.839 16.748 210.484 17.1029 209.458 17.9787C208.432 18.8544 207.919 20.2271 207.919 22.0969V30.9723H202.938V12.7599H207.736Z" fill="#9ca3af"/>
<path d="M232.449 30.9722H227.65V28.8421H227.54C226.856 29.7415 226.099 30.4041 225.269 30.8301C224.463 31.2562 223.425 31.4692 222.155 31.4692C220.104 31.4692 218.504 30.8776 217.356 29.6942C216.209 28.5108 215.635 26.9132 215.635 24.9014V12.7598H220.58V24.0849C220.58 26.2859 221.618 27.3865 223.694 27.3865C224.842 27.3865 225.757 27.0078 226.441 26.2504C227.125 25.4931 227.467 24.4991 227.467 23.2683V12.7598H232.449V30.9722Z" fill="#9ca3af"/>
<path d="M234.572 15.9546V12.7594H237.173V7.0791H242.045V12.7594H245.269V15.9546H242.045V25.6111C242.045 26.8181 242.668 27.4216 243.913 27.4216L245.379 27.3861V30.9363C244.622 30.9837 243.584 31.0073 242.265 31.0073C240.824 31.0073 239.615 30.676 238.638 30.0132C237.662 29.3269 237.173 28.2027 237.173 26.6406V15.9546H234.572Z" fill="#9ca3af"/>
<path d="M247.899 30.972V25.8242H253.248V30.972H247.899Z" fill="#9ca3af"/>
</g>
</g>
<path d="M314.87 28.6474C313.998 28.6474 313.291 27.9404 313.291 27.0685V13.1424C313.291 12.2704 313.998 11.5635 314.87 11.5635H317.902C318.774 11.5635 319.481 12.2704 319.481 13.1424V27.0685C319.481 27.9404 318.774 28.6474 317.902 28.6474H314.87Z" fill="#9ca3af"/>
<path d="M320.065 6.17788C320.065 8.18756 318.436 9.81672 316.426 9.81672C314.416 9.81672 312.787 8.18756 312.787 6.17788C312.787 4.16822 314.416 2.53906 316.426 2.53906C318.436 2.53906 320.065 4.16822 320.065 6.17788Z" fill="#9ca3af" fill-opacity="0.5"/>
<path fill-rule="evenodd" clip-rule="evenodd" d="M298.677 27.4347C298.677 28.1046 299.22 28.6474 299.89 28.6474H301.932H303.576C304.448 28.6474 305.155 27.9404 305.155 27.0685V19.7179C306.192 19.8777 307.246 19.8095 308.278 19.5091L309.106 19.2682C309.583 19.1295 309.91 18.6931 309.91 18.1972V13.7796C309.91 13.0531 309.227 12.5206 308.522 12.6982L307.349 12.9939C306.622 13.2055 305.876 13.2048 305.155 12.9974V8.39401C305.155 7.98396 305.198 7.64627 305.283 7.38093C305.389 7.09149 305.487 6.91464 305.679 6.76992C305.891 6.62519 306.185 6.51605 306.525 6.51605C306.999 6.51605 307.451 6.62356 307.794 6.72967C307.856 6.7488 307.918 6.76758 307.979 6.78601C308.808 7.03407 309.663 6.51935 309.882 5.68234L310.805 2.15806C310.972 1.51987 310.652 0.845009 310.027 0.634445C309.101 0.322544 308.306 0.188583 307.371 0.0846594C306.61 0 305.868 0 304.996 0C303.648 0 302.602 0.349751 301.645 1.04925C300.709 1.72463 299.975 2.62915 299.443 3.76283C298.933 4.89651 298.677 6.15078 298.677 7.52567V10.0576C297.666 9.91299 296.639 9.98501 295.632 10.2781L294.804 10.519C294.327 10.6576 294 11.094 294 11.5899V16.0994C294 16.8606 294.746 17.3982 295.468 17.1575L296.561 16.7932C297.262 16.5892 297.981 16.5826 298.677 16.7682V27.4347Z" fill="#9ca3af"/>
<path d="M331.8 35.9726C330.267 35.9726 328.744 35.7597 327.232 35.3338C326.289 35.0643 325.452 34.7439 324.723 34.3721C324.026 34.0176 323.819 33.1567 324.173 32.4595L325.011 30.8079C325.414 30.0148 326.411 29.7524 327.232 30.0945C327.743 30.3075 328.275 30.4671 328.829 30.5737C329.404 30.6802 330.011 30.7335 330.65 30.7335C331.651 30.7335 332.461 30.595 333.078 30.3182C333.696 30.0626 334.143 29.6473 334.42 29.0722C334.718 28.4971 334.867 27.7624 334.867 26.8678V25.0143C334.867 24.6369 335.191 24.3409 335.567 24.3744C335.956 24.409 336.228 24.7846 336.065 25.14C335.862 25.5832 335.569 25.9888 335.187 26.3567C334.612 26.9105 333.898 27.3471 333.046 27.6666C332.194 27.9859 331.289 28.1457 330.331 28.1457C328.819 28.1457 327.477 27.8049 326.305 27.1234C325.155 26.4419 324.239 25.4942 323.558 24.2802C322.897 23.0449 322.567 21.5966 322.567 19.9355C322.567 18.2104 322.897 16.6982 323.558 15.3991C324.218 14.0786 325.112 13.0457 326.241 12.3003C327.392 11.5548 328.701 11.1821 330.171 11.1821C330.81 11.1821 331.417 11.246 331.992 11.3738C332.567 11.5016 333.1 11.6826 333.589 11.9169C334.079 12.1299 334.516 12.3961 334.899 12.7155C335.283 13.035 335.592 13.3864 335.826 13.7698C335.976 13.9953 336.097 14.2319 336.189 14.4795C336.296 14.7705 336.096 15.0686 335.793 15.1351C335.414 15.2183 335.064 14.9087 335.1 14.5225L335.245 12.9659C335.321 12.1542 336.002 11.5335 336.817 11.5335H339.806C340.678 11.5335 341.385 12.2404 341.385 13.1124V26.9636C341.385 28.3906 341.161 29.6579 340.714 30.7654C340.288 31.8941 339.66 32.8418 338.829 33.6085C337.998 34.3967 336.987 34.9822 335.794 35.3657C334.622 35.7704 333.291 35.9726 331.8 35.9726ZM331.96 23.5135C332.62 23.5135 333.174 23.375 333.621 23.0982C334.09 22.8214 334.441 22.4273 334.676 21.9161C334.91 21.3837 335.027 20.7447 335.027 19.9994C335.027 19.254 334.91 18.6149 334.676 18.0826C334.441 17.5501 334.09 17.1455 333.621 16.8686C333.174 16.5917 332.62 16.4533 331.96 16.4533C331.3 16.4533 330.746 16.5917 330.299 16.8686C329.851 17.1455 329.511 17.5501 329.277 18.0826C329.042 18.6149 328.925 19.254 328.925 19.9994C328.925 20.7447 329.042 21.3837 329.277 21.9161C329.511 22.4273 329.851 22.8214 330.299 23.0982C330.746 23.375 331.3 23.5135 331.96 23.5135Z" fill="#9ca3af"/>
<path d="M350.665 28.9761C349.366 28.9761 348.269 28.7099 347.375 28.1775C346.48 27.6449 345.799 26.8675 345.33 25.8453C344.861 24.8017 344.627 23.5451 344.627 22.0756V13.1121C344.627 12.2401 345.334 11.5332 346.206 11.5332H349.534C350.406 11.5332 351.113 12.2401 351.113 13.1121V21.5326C351.113 22.001 351.187 22.3951 351.336 22.7144C351.506 23.034 351.741 23.2789 352.039 23.4493C352.337 23.6197 352.699 23.7049 353.125 23.7049C353.445 23.7049 353.732 23.6624 353.988 23.5772C354.265 23.4705 354.499 23.3216 354.691 23.1298C354.882 22.9381 355.032 22.7253 355.138 22.4909C355.244 22.2354 355.298 21.9692 355.298 21.6922V13.1121C355.298 12.2401 356.005 11.5332 356.877 11.5332H360.204C361.076 11.5332 361.783 12.2401 361.783 13.1121V27.0458C361.783 27.9177 361.076 28.6247 360.204 28.6247H357.254C356.45 28.6247 355.774 28.0197 355.685 27.2202L355.5 25.5609C355.475 25.3363 355.613 25.1254 355.828 25.0573C356.189 24.9435 356.52 25.2755 356.356 25.6159C356.122 26.1008 355.811 26.5499 355.425 26.9634C354.851 27.5811 354.148 28.0708 353.317 28.433C352.486 28.7951 351.602 28.9761 350.665 28.9761Z" fill="#9ca3af"/>
<path d="M366.9 28.625C366.028 28.625 365.321 27.918 365.321 27.0461V13.1124C365.321 12.2404 366.028 11.5335 366.9 11.5335H369.851C370.682 11.5335 371.371 12.1773 371.427 13.0062L371.629 16.0005C371.663 16.5097 371.106 16.8439 370.673 16.5743C370.436 16.427 370.323 16.1398 370.414 15.8762C370.69 15.0768 371.079 14.3534 371.583 13.7059C372.179 12.9179 372.893 12.3003 373.724 11.853C374.576 11.4058 375.481 11.1821 376.439 11.1821C376.823 11.1821 377.185 11.2141 377.526 11.278C377.999 11.3371 378.29 11.8655 378.29 12.3426V16.4471C378.29 17.6111 376.828 18.5486 375.704 18.2423C375.257 18.1145 374.767 18.0506 374.235 18.0506C373.851 18.0506 373.5 18.1145 373.18 18.2423C372.882 18.3487 372.627 18.5191 372.414 18.7535C372.222 18.9878 372.073 19.2646 371.966 19.5841C371.86 19.9034 371.807 20.2763 371.807 20.7022V27.0461C371.807 27.918 371.1 28.625 370.228 28.625H366.9Z" fill="#9ca3af"/>
<path d="M389.5 28.9445C387.519 28.9445 385.815 28.561 384.388 27.7943C382.961 27.0276 381.864 25.984 381.097 24.6635C380.331 23.3219 379.947 21.7884 379.947 20.0632C379.947 18.7853 380.16 17.6034 380.586 16.5172C381.012 15.431 381.609 14.4939 382.375 13.7059C383.163 12.8966 384.079 12.2789 385.123 11.853C386.188 11.4058 387.349 11.1821 388.605 11.1821C389.862 11.1821 391.001 11.4058 392.024 11.853C393.067 12.2789 393.962 12.8966 394.707 13.7059C395.453 14.4939 396.017 15.431 396.401 16.5172C396.805 17.6034 396.986 18.7853 396.944 20.0632C396.926 20.8094 396.316 21.405 395.57 21.405H384.719C384.019 21.405 383.409 20.9255 383.245 20.2446C383.013 19.2897 383.737 18.3702 384.719 18.3702H391.343C391.503 18.3702 391.586 18.5618 391.476 18.678C391.362 18.7974 391.161 18.7172 391.161 18.5525V18.4339C391.161 18.0293 391.055 17.6779 390.842 17.3798C390.65 17.0603 390.373 16.8154 390.011 16.645C389.649 16.4746 389.223 16.3894 388.733 16.3894C388.115 16.3894 387.594 16.5172 387.168 16.7728C386.742 17.0283 386.411 17.3904 386.177 17.8589C385.964 18.3275 385.858 18.892 385.858 19.552C385.858 20.3188 386.017 20.9897 386.337 21.5647C386.678 22.1398 387.168 22.587 387.807 22.9066C388.467 23.2259 389.276 23.3856 390.235 23.3856C390.874 23.3856 391.417 23.3111 391.864 23.1621C391.895 23.1508 391.927 23.1389 391.958 23.1268C392.77 22.8111 393.742 22.939 394.247 23.6495L395.433 25.3207C395.921 26.0079 395.79 26.9706 395.07 27.4083C394.702 27.632 394.336 27.8245 393.973 27.9859C393.227 28.3267 392.482 28.5716 391.736 28.7208C391.012 28.8699 390.266 28.9445 389.5 28.9445Z" fill="#9ca3af"/>
<path d="M406.149 28.9445C404.296 28.9445 402.677 28.6675 401.293 28.1138C400.543 27.7972 399.882 27.4387 399.313 27.0382C398.587 26.5278 398.654 25.4978 399.328 24.9207L400.83 23.6352C401.426 23.1251 402.298 23.1495 402.979 23.5388C403.363 23.7583 403.77 23.9415 404.2 24.0886C405.095 24.3654 405.84 24.5037 406.437 24.5037C406.65 24.5037 406.831 24.4931 406.98 24.4719C407.15 24.4294 407.278 24.376 407.363 24.3121C407.421 24.2663 407.469 24.2203 407.507 24.1743C407.569 24.1022 407.622 24.0206 407.653 23.931C407.673 23.8731 407.683 23.8085 407.683 23.737C407.683 23.4177 407.512 23.1834 407.171 23.0342C406.98 22.9491 406.66 22.8426 406.213 22.7147C405.787 22.587 405.223 22.4379 404.52 22.2675C403.689 22.0546 402.922 21.7884 402.219 21.4689C401.538 21.1494 400.952 20.7768 400.462 20.3508C399.951 19.8822 399.546 19.3498 399.248 18.7535C398.971 18.1571 398.833 17.4862 398.833 16.7408C398.833 15.8676 399.035 15.0902 399.44 14.4087C399.845 13.7272 400.399 13.1522 401.101 12.6836C401.804 12.1938 402.592 11.8211 403.465 11.5655C404.339 11.3099 405.233 11.1821 406.149 11.1821C407.193 11.1821 408.162 11.2886 409.056 11.5016C409.972 11.6933 410.824 11.9808 411.612 12.3641C411.882 12.4847 412.143 12.6135 412.396 12.7506C413.202 13.1873 413.296 14.2548 412.685 14.9375L411.537 16.2196C410.972 16.8501 410.009 16.918 409.274 16.4996C409.265 16.4948 409.257 16.49 409.248 16.4852C408.78 16.2084 408.279 15.9847 407.747 15.8144C407.235 15.6227 406.756 15.5268 406.309 15.5268C406.075 15.5268 405.872 15.5482 405.702 15.5907C405.553 15.612 405.425 15.6653 405.319 15.7505C405.212 15.8144 405.127 15.8996 405.063 16.0061C405.02 16.0912 404.999 16.1977 404.999 16.3255C404.999 16.4959 405.052 16.6556 405.159 16.8047C405.265 16.9538 405.436 17.0816 405.67 17.1881C405.862 17.2733 406.181 17.3904 406.628 17.5395C407.097 17.6886 407.778 17.8909 408.673 18.1465C409.632 18.4233 410.473 18.7428 411.197 19.1048C411.943 19.4669 412.539 19.8928 412.986 20.3827C413.284 20.7235 413.519 21.1069 413.689 21.5329C413.859 21.9588 413.945 22.4167 413.945 22.9066C413.945 24.0778 413.604 25.1215 412.922 26.0372C412.262 26.9318 411.346 27.6452 410.175 28.1778C409.003 28.6889 407.661 28.9445 406.149 28.9445Z" fill="#9ca3af"/>
<mask id="mask3_29_234" style="mask-type:luminance" maskUnits="userSpaceOnUse" x="454" y="7" width="164" height="23">
<path d="M617.025 7.94092H454.253V29.1161H617.025V7.94092Z" fill="white"/>
</mask>
<g mask="url(#mask3_29_234)">
<path d="M602.076 28.1928C602.076 28.1928 604.884 28.102 606.36 28.102H615.58L616.674 23.3026H615.671C614.191 26.3969 613.84 26.9595 611.3 26.9595H606.656C606.656 26.9595 606.803 26.1935 606.803 25.3063V19.0009L607.098 18.7066H612.216V20.8878H613.601V15.699L612.511 15.8763L612.277 17.5555H606.803V9.8912L607.098 9.59695H610.974C613.336 9.59695 614.317 10.2158 614.17 13.2538H615.173L616.087 8.3333C616.087 8.3333 615.173 8.4501 613.96 8.4501H601.784V9.18149C604.059 9.62287 604.207 9.91721 604.207 11.3323V25.4188C604.207 26.4791 603.408 27.098 602.08 27.2451V28.1928H602.076ZM581.738 18.4989C581.738 24.8649 586.761 28.4569 592.022 28.4569C597.166 28.4569 599.379 25.0423 599.379 25.0423L598.967 24.4235C598.967 24.4235 596.723 26.5181 593.029 26.5181C588.21 26.5181 584.487 22.9521 584.487 17.6464C584.487 12.873 587.503 9.21614 592.057 9.21614C594.452 9.21614 597.053 10.1899 597.053 13.2538H598.056L598.942 8.77467C597.409 8.62755 594.778 8.09961 592.56 8.09961C586.201 8.09961 581.738 12.4878 581.738 18.4989ZM559.512 28.1928L565.334 28.0154L565.451 27.1932L562.79 27.0158C562.79 27.0158 562.937 26.3104 562.937 25.4231V12.0464C563.232 12.4878 563.645 13.0504 564.001 13.4615L576.563 28.2534H577.332V11.869C577.332 9.42382 579.372 8.86124 579.372 8.86124L579.225 8.45442H573.612V9.2767C576.008 9.51039 576.038 10.1899 576.038 11.4882V23.7483C575.713 23.2766 575.24 22.6578 574.853 22.1861L564.149 9.8696C563.41 9.01268 563.055 8.33762 563.055 8.33762C563.055 8.33762 561.553 8.45442 560.103 8.45442H559.218V9.18581C561.17 9.54071 561.639 10.1292 561.639 12.1632V25.4275C561.639 26.4877 560.841 27.1066 559.512 27.2538V28.1928ZM542.188 28.1928C542.188 28.1928 544.996 28.102 546.472 28.102H555.692L556.786 23.3026H555.784C554.303 26.3969 553.952 26.9595 551.412 26.9595H546.768C546.768 26.9595 546.915 26.1935 546.915 25.3063V19.0009L547.21 18.7066H552.328V20.8878H553.713V15.699L552.623 15.8763L552.389 17.5555H546.915V9.8912L547.21 9.59695H551.087C553.448 9.59695 554.429 10.2158 554.282 13.2538H555.285L556.2 8.3333C556.2 8.3333 555.285 8.4501 554.073 8.4501H541.896V9.18149C544.172 9.62287 544.319 9.91721 544.319 11.3323V25.4188C544.319 26.4791 543.52 27.098 542.192 27.2451V28.1928H542.188ZM532.373 28.1972L539.64 28.0197L539.757 27.1889L536.948 26.9249C536.948 26.9249 537.096 26.2757 537.096 25.4231V12.0161C537.096 9.57527 538.073 8.45442 538.073 8.45442L537.925 8.33762C537.925 8.33762 537.274 8.45442 534.617 8.45442H532.312V9.18581C534.5 9.62727 534.5 9.92153 534.5 11.3366V25.4275C534.5 26.4315 533.671 27.1066 532.373 27.2538V28.1972ZM515.79 28.1928C515.79 28.1928 518.451 28.102 519.927 28.102H529.447L530.658 22.7141H529.651C528.171 26.0464 527.702 26.9595 525.158 26.9595H520.223C520.223 26.9595 520.37 26.2238 520.37 25.3367V12.0161C520.37 9.57095 521.347 8.4501 521.347 8.4501L521.199 8.3333C521.199 8.3333 520.548 8.4501 517.891 8.4501H515.586V9.18149C517.774 9.62287 517.774 9.91721 517.774 11.3323V25.4231C517.774 26.4834 517.123 27.1023 515.795 27.2494V28.1928H515.79ZM505.919 28.1972L513.186 28.0197L513.303 27.1889L510.494 26.9249C510.494 26.9249 510.642 26.2757 510.642 25.4231V12.0161C510.642 9.57527 511.619 8.45442 511.619 8.45442L511.471 8.33762C511.471 8.33762 510.82 8.45442 508.163 8.45442H505.858V9.18581C508.046 9.62727 508.046 9.92153 508.046 11.3366V25.4275C508.046 26.4315 507.217 27.1066 505.919 27.2538V28.1972ZM490.695 25.4275C490.695 27.5783 493.825 28.4612 496.399 28.4612C499.946 28.4612 502.989 26.8123 502.989 23.2766C502.989 16.9409 493.738 17.4386 493.738 12.2844C493.738 10.1335 495.423 9.22046 497.406 9.22046C499.889 9.22046 501.014 11.0467 500.719 13.2581H501.721L502.637 8.66219C501.986 8.57131 499.863 8.10393 497.762 8.10393C493.387 8.10393 491.173 10.311 491.173 13.2278C491.173 19.213 500.423 19.1221 500.423 24.2504C500.423 26.5181 498.592 27.3447 496.668 27.3447C494.659 27.3447 492.38 26.4013 492.38 22.8049H491.377C490.813 24.5706 490.695 24.9861 490.695 25.4275ZM473.701 28.1928C473.701 28.1928 476.509 28.102 477.985 28.102H487.205L488.299 23.3026H487.296C485.816 26.3969 485.465 26.9595 482.925 26.9595H478.28C478.28 26.9595 478.428 26.1935 478.428 25.3063V19.0009L478.723 18.7066H483.841V20.8878H485.226V15.699L484.136 15.8763L483.902 17.5555H478.423V9.8912L478.719 9.59695H482.595C484.957 9.59695 485.938 10.2158 485.79 13.2538H486.793L487.709 8.3333C487.709 8.3333 486.793 8.4501 485.582 8.4501H473.401V9.18149C475.676 9.62287 475.823 9.91721 475.823 11.3323V25.4188C475.823 26.4791 475.025 27.098 473.696 27.2451V28.1928H473.701ZM459.862 18.2349V9.8912L460.157 9.59695H461.251C464.888 9.59695 466.16 11.7175 466.16 13.9592C466.16 16.8198 464.12 18.2349 462.345 18.2349H459.862ZM455.134 28.1972L462.258 28.0197L462.375 27.1889L459.714 26.9249C459.714 26.9249 459.862 26.2757 459.862 25.4231V19.676L460.157 19.3818H462.314L465.982 24.774C467.193 26.5441 467.814 28.0197 467.814 28.0197L467.931 28.1106H472.216L472.333 27.1629L472.008 27.1326C471.239 27.072 470.649 27.0158 469.377 25.1894L465.123 18.9749V18.5941C466.542 17.8584 469.021 15.9715 469.021 13.2019C469.021 10.6356 467.011 8.45874 461.689 8.45874H454.839V9.19013C457.114 9.63159 457.261 9.92584 457.261 11.341V25.4275C457.261 26.4315 456.432 27.1066 455.134 27.2538V28.1972Z" fill="#9ca3af"/>
</g>
<g clip-path="url(#clip2_29_234)">
<mask id="mask4_29_234" style="mask-type:luminance" maskUnits="userSpaceOnUse" x="658" y="3" width="129" height="30">
<path d="M786.295 3.65332H658.295V32.9083H786.295V3.65332Z" fill="white"/>
</mask>
<g mask="url(#mask4_29_234)">
<path d="M658.935 4.37109C664.194 4.30957 669.452 4.30957 674.743 4.30957C674.743 6.05329 674.743 7.7692 674.743 9.53774C671.174 9.53774 667.598 9.53774 663.991 9.53774C663.991 10.211 663.991 10.8331 663.991 11.5082C667.561 11.5082 671.137 11.5082 674.744 11.5082C674.744 13.232 674.744 14.9041 674.744 16.6288C671.172 16.6288 667.595 16.6288 663.989 16.6288C663.989 17.3458 663.989 18.0118 663.989 18.7306C667.563 18.7306 671.14 18.7306 674.745 18.7306C674.745 20.4545 674.745 22.1266 674.745 23.868C669.509 23.868 664.273 23.868 658.986 23.868C658.935 17.3896 658.935 10.9111 658.935 4.37109Z" fill="#9ca3af"/>
<path d="M658.935 26.8174C664.191 26.7559 669.447 26.7559 674.739 26.7559C674.739 28.5036 674.739 30.217 674.739 32.0065C669.504 32.0065 664.27 32.0065 658.986 32.0065C658.935 30.2973 658.935 28.5881 658.935 26.8174Z" fill="#9ca3af" fill-opacity="0.5"/>
<path d="M679.842 21.8699C678.781 20.8301 677.924 19.6614 677.389 18.1712C676.796 16.5185 676.523 14.8422 676.719 13.0197C676.874 11.5815 677.202 10.2621 677.833 9.03785C678.814 7.13699 680.213 5.8367 681.903 4.97194C683.69 4.0571 685.581 3.76625 687.496 3.93351C690.279 4.17658 692.811 5.2227 694.696 7.85228C695.79 9.37735 696.391 11.1623 696.535 13.2102C696.667 15.0888 696.406 16.8374 695.739 18.5096C695.505 19.0958 695.168 19.6228 694.859 20.2139C695.273 20.6741 695.666 21.1793 696.118 21.5892C696.402 21.8469 696.357 22.0427 696.159 22.2487C695.16 23.2832 694.15 24.3016 693.144 25.3256C692.543 24.7154 691.963 24.1124 691.367 23.5342C691.265 23.4355 691.064 23.3598 690.957 23.4136C689.121 24.3379 687.184 24.3942 685.26 24.2335C683.306 24.0704 681.49 23.2762 679.842 21.8699ZM685.562 18.7481C685.954 18.799 686.347 18.8499 686.74 18.9008C686.751 18.8586 686.762 18.8163 686.773 18.7741C686.415 18.3998 686.056 18.0254 685.697 17.6503C686.642 16.5118 687.571 15.4037 688.486 14.2786C688.702 14.0133 688.85 13.9423 689.11 14.2272C689.66 14.8275 690.246 15.3802 690.91 16.0458C691 15.0631 691.224 14.1641 691.129 13.317C690.976 11.959 690.305 10.9187 689.291 10.2062C688.346 9.54251 687.336 9.36551 686.269 9.42566C684.888 9.5035 683.725 10.0641 682.806 11.3759C681.724 12.9214 681.872 15.791 683.026 17.1865C683.712 18.016 684.566 18.423 685.562 18.7481Z" fill="#9ca3af"/>
<path d="M720.76 23.999C719.275 23.999 717.844 23.999 716.302 23.999C718.954 17.3818 721.564 10.8684 724.192 4.30926C726.156 4.30926 728.136 4.30439 730.115 4.32095C730.239 4.32198 730.421 4.45566 730.475 4.58738C731.359 6.74508 732.227 8.91196 733.098 11.0777C734.121 13.6233 735.148 16.1664 736.162 18.717C736.856 20.4628 737.531 22.2198 738.221 23.9884C736.258 23.9884 734.33 23.9884 732.392 23.9884C732.03 23.0727 731.686 22.1505 731.295 21.2577C731.212 21.0667 730.96 20.8677 730.784 20.8659C728.364 20.8403 725.943 20.8403 723.522 20.866C723.347 20.8678 723.096 21.0685 723.012 21.26C722.628 22.1369 722.291 23.0435 721.914 23.999C721.568 23.999 721.191 23.999 720.76 23.999ZM728.087 13.0097C727.794 12.2053 727.502 11.4008 727.193 10.5507C726.484 12.3634 725.81 14.0883 725.131 15.8236C726.519 15.8236 727.837 15.8236 729.22 15.8236C728.841 14.8747 728.486 13.9863 728.087 13.0097Z" fill="#9ca3af"/>
<path d="M716.396 15.9841C716.402 18.2461 715.775 20.1571 714.448 21.6527C713.308 22.9361 711.908 23.7423 710.359 23.9736C708.971 24.1809 707.555 24.3118 706.161 24.2286C704.157 24.1089 702.271 23.3817 700.729 21.754C699.678 20.644 699.044 19.198 698.817 17.5301C698.731 16.8957 698.706 16.2433 698.704 15.599C698.694 11.8614 698.7 8.12371 698.7 4.34766C700.441 4.34766 702.16 4.34766 703.943 4.34766C703.943 4.54515 703.943 4.75473 703.943 4.9643C703.943 8.35467 703.933 11.7451 703.947 15.1354C703.954 16.8982 704.897 18.3385 706.401 18.6202C707.578 18.8406 708.717 18.8929 709.803 18.1078C710.755 17.4195 711.127 16.3682 711.14 15.1425C711.176 11.7746 711.153 8.40573 711.153 5.03724C711.153 4.82071 711.153 4.60418 711.153 4.34874C712.892 4.34874 714.611 4.34874 716.396 4.34874C716.396 8.19592 716.396 12.0578 716.396 15.9841Z" fill="#9ca3af"/>
<path d="M779.897 15.237C778.726 18.1735 777.584 21.0713 776.436 23.9848C774.516 23.9848 772.587 23.9848 770.611 23.9848C768.046 17.4807 765.473 10.9547 762.871 4.35618C764.896 4.35618 766.847 4.35618 768.819 4.35618C770.389 8.45388 771.968 12.575 773.615 16.8718C775.289 12.5526 776.884 8.43644 778.472 4.33936C780.366 4.33936 782.233 4.33936 784.179 4.33936C783.479 6.10846 782.802 7.81663 782.125 9.52525C781.432 11.2769 780.739 13.0286 780.049 14.7818C779.996 14.9144 779.966 15.0592 779.897 15.237Z" fill="#9ca3af"/>
<path d="M738.572 4.30957C743.794 4.30957 748.962 4.30957 754.161 4.30957C754.161 6.05205 754.161 7.76788 754.161 9.53618C751.978 9.53618 749.785 9.53618 747.55 9.53618C747.55 14.3663 747.55 19.1447 747.55 23.9611C745.788 23.9611 744.069 23.9611 742.306 23.9611C742.306 19.1932 742.306 14.4147 742.306 9.5843C740.071 9.5843 737.878 9.5843 735.654 9.5843C735.654 7.81696 735.654 6.10114 735.654 4.30957C736.603 4.30957 737.56 4.30957 738.572 4.30957Z" fill="#9ca3af"/>
<path d="M761.291 11.3976C761.291 15.6166 761.291 19.7699 761.291 23.9611C759.549 23.9611 757.83 23.9611 756.079 23.9611C756.079 17.4419 756.079 10.9135 756.079 4.34717C757.79 4.34717 759.509 4.34717 761.291 4.34717C761.291 6.6689 761.291 9.00042 761.291 11.3976Z" fill="#9ca3af"/>
</g>
</g>
<g clip-path="url(#clip3_29_234)">
<mask id="mask5_29_234" style="mask-type:luminance" maskUnits="userSpaceOnUse" x="827" y="5" width="123" height="28">
<path d="M949 5H827.322V32.0572H949V5Z" fill="white"/>
</mask>
<g mask="url(#mask5_29_234)">
<path d="M854.822 31.8855C854.221 32 853.591 32.0429 852.919 32.0429C851.145 32.0429 849.571 31.6709 848.212 30.9125C846.852 30.1542 845.793 29.0811 845.035 27.6645C844.277 26.248 843.89 24.5453 843.89 22.5707C843.89 20.5103 844.334 18.779 845.221 17.3482C846.108 15.9173 847.267 14.8156 848.684 14.0572C850.1 13.2989 851.588 12.9125 853.133 12.9125C854.707 12.9125 856.067 13.2416 857.197 13.8855C858.327 14.5437 859.2 15.4308 859.815 16.5755C860.431 17.7202 860.731 19.0222 860.731 20.5103C860.731 20.8394 860.717 21.1399 860.688 21.4261C860.66 21.7122 860.617 21.9841 860.531 22.2273H849.213C849.242 24.8171 849.714 28.1224 850.658 29.6105C851.602 31.1128 852.976 31.8712 854.779 31.8712L854.822 31.8855ZM852.962 14C852.232 14 851.602 14.2003 851.059 14.6153C850.515 15.0302 850.1 15.7599 849.785 16.7901C849.471 17.8346 849.285 19.2941 849.242 21.1685H855.967C856.238 18.6359 856.138 16.8044 855.666 15.6741C855.194 14.558 854.292 14 852.962 14ZM891.179 12.9269C889.605 12.9269 888.389 13.6423 887.559 15.0588C886.715 16.4897 886.3 19.1367 886.3 21.9698C886.3 24.4022 886.758 26.2766 887.688 27.5787C888.618 28.8807 890.063 29.5389 892.009 29.5389C893.168 29.5389 894.113 29.3243 894.871 28.8807C895.629 28.4372 896.316 27.8076 896.946 26.9777L897.547 27.4356C896.917 28.938 895.958 30.0826 894.671 30.8696C893.383 31.6566 891.838 32.0572 890.063 32.0572C888.361 32.0572 886.815 31.6852 885.442 30.9411C884.068 30.1971 882.981 29.124 882.194 27.7074C881.407 26.2909 881.006 24.5739 881.006 22.5421C881.006 20.5103 881.45 18.779 882.323 17.3482C883.195 15.9173 884.369 14.8156 885.842 14.0572C887.302 13.2989 888.919 12.9125 890.679 12.9125C890.836 12.9125 891.008 12.9125 891.179 12.9269ZM903.857 28.8235C903.857 29.3243 903.957 29.7249 904.157 30.0254C904.357 30.3259 904.701 30.5405 905.173 30.6693L905.516 30.7838V31.5421H896.946V30.7838L897.432 30.6264C898.334 30.3545 898.791 29.7249 898.791 28.752V9.37837C898.791 8.84896 898.706 8.46264 898.534 8.19078C898.362 7.93322 898.019 7.73291 897.518 7.60413L896.96 7.44674V6.73132L903.313 5.11447L903.871 5.42925V28.8235H903.857ZM867.914 28.8235C867.914 29.3243 868.014 29.7249 868.215 30.0254C868.415 30.3259 868.758 30.5405 869.23 30.6693L869.574 30.7838V31.5421H861.003V30.7838L861.49 30.6264C862.391 30.3545 862.849 29.7249 862.849 28.752V17.6916C862.849 17.1621 862.763 16.7758 862.591 16.504C862.42 16.2464 862.076 16.0461 861.576 15.9173L861.017 15.7599V15.0445L867.37 12.7409L867.928 13.0556V28.8235H867.914ZM870.676 14.0572C871.72 13.3847 872.836 12.9125 874.038 12.9125C875.698 12.9125 876.986 13.3704 877.93 14.3005C878.874 15.2305 879.346 16.6614 879.346 18.593V28.7806C879.346 29.2814 879.447 29.682 879.647 29.9825C879.847 30.283 880.205 30.5119 880.706 30.655L881.049 30.7694V31.5278H872.478V30.7694L872.936 30.6121C873.838 30.3688 874.296 29.7392 874.296 28.7377V17.8776C874.296 16.8474 874.31 15.4738 873.494 14.6153C872.922 14.0286 872.078 13.9714 870.676 14.0572ZM906.618 14.0572C907.663 13.3847 908.779 12.9125 909.981 12.9125C911.64 12.9125 912.928 13.3704 913.872 14.3005C914.817 15.2305 915.289 16.6614 915.289 18.593V28.7806C915.289 29.2814 915.389 29.682 915.589 29.9825C915.79 30.283 916.148 30.5119 916.648 30.655L916.992 30.7694V31.5278H908.421V30.7694L908.879 30.6121C909.78 30.3688 910.238 29.7392 910.238 28.7377V17.8776C910.238 16.8474 910.252 15.4738 909.437 14.6153C908.85 14.0286 908.006 13.9714 906.618 14.0572ZM942.346 5.24324C942.046 5.32909 941.716 6.24483 941.588 6.74563C941.387 7.68998 941.344 8.19078 941.23 9.47853C941.116 10.752 941.044 12.3116 941.03 13.4849H945.351V14.6439H941.03V23.6296C941.03 24.4881 941.03 25.3323 941.044 26.1621C941.058 27.0063 941.058 27.8505 941.058 28.6947C941.058 29.6963 941.559 30.3116 942.561 30.5405L943.534 30.7981V31.5135H933.833V30.7981L934.391 30.6407C935.392 30.3688 935.907 29.7536 935.936 28.7949C935.936 27.9221 935.936 27.0493 935.95 26.1764C935.965 25.3179 935.965 24.4594 935.965 23.6009V14.6439H933.818V13.814L934.648 13.6566C935.149 13.5851 935.507 13.399 935.736 13.1129C935.965 12.8267 936.122 12.4118 936.222 11.8966C936.494 10.8951 936.866 10.0223 937.338 9.27821C937.796 8.53418 938.354 7.86168 939.012 7.23211C939.942 6.33068 940.93 5.70111 941.988 5.35771C942.117 5.31479 942.232 5.27186 942.346 5.24324ZM842.173 25.7329L840.857 28.4801C840.557 29.1097 840.227 29.5962 839.855 29.9682C839.498 30.3259 838.94 30.5119 838.181 30.5119H832.73L842.731 14.2289V13.4706H838.153L827.321 30.6979V31.5278H842.817L843.161 25.7329H842.173ZM830.398 13.4706C828.924 13.4706 827.708 14.6725 827.708 16.1606C827.708 17.6486 828.91 18.8505 830.398 18.8505C831.886 18.8505 833.088 17.6486 833.088 16.1606C833.088 14.6725 831.886 13.4706 830.398 13.4706ZM857.283 25.0318C855.795 25.0318 854.593 26.2337 854.593 27.7218C854.593 29.2098 855.795 30.4117 857.283 30.4117C858.771 30.4117 859.973 29.2098 859.973 27.7218C859.973 26.2337 858.771 25.0318 857.283 25.0318ZM927.852 31.8855C927.251 32 926.621 32.0429 925.949 32.0429C924.174 32.0429 922.601 31.6709 921.241 30.9125C919.882 30.1542 918.823 29.0811 918.065 27.6645C917.306 26.248 916.92 24.5453 916.92 22.5707C916.92 20.5103 917.364 18.779 918.251 17.3482C919.138 15.9173 920.297 14.8156 921.713 14.0572C923.13 13.2989 924.618 12.9125 926.163 12.9125C927.737 12.9125 929.097 13.2416 930.227 13.8855C931.357 14.5437 932.23 15.4308 932.845 16.5755C933.461 17.7202 933.761 19.0222 933.761 20.5103C933.761 20.8394 933.747 21.1399 933.718 21.4261C933.689 21.7122 933.647 21.9841 933.561 22.2273H922.243C922.271 24.8171 922.744 28.1224 923.688 29.6105C924.632 31.1128 926.006 31.8712 927.809 31.8712L927.852 31.8855ZM925.992 14C925.262 14 924.632 14.2003 924.089 14.6153C923.545 15.0302 923.13 15.7599 922.815 16.7901C922.5 17.8346 922.314 19.2941 922.271 21.1685H928.996C929.268 18.6359 929.168 16.8044 928.696 15.6741C928.224 14.558 927.322 14 925.992 14ZM930.313 25.0318C928.825 25.0318 927.623 26.2337 927.623 27.7218C927.623 29.2098 928.825 30.4117 930.313 30.4117C931.801 30.4117 933.003 29.2098 933.003 27.7218C933.003 26.2337 931.801 25.0318 930.313 25.0318ZM946.309 5C944.821 5 943.619 6.20191 943.619 7.68998C943.619 9.17806 944.821 10.38 946.309 10.38C947.798 10.38 948.999 9.17806 948.999 7.68998C948.999 6.20191 947.798 5 946.309 5ZM894.685 14.6009C893.197 14.6009 891.995 15.8029 891.995 17.2909C891.995 18.779 893.197 19.9809 894.685 19.9809C896.173 19.9809 897.375 18.779 897.375 17.2909C897.375 15.8029 896.159 14.6009 894.685 14.6009Z" fill="#9ca3af"/>
</g>
</g>
<g clip-path="url(#clip4_29_234)">
<mask id="mask6_29_234" style="mask-type:luminance" maskUnits="userSpaceOnUse" x="989" y="5" width="96" height="27">
<path d="M1084.3 5.58789H989.907V31.4687H1084.3V5.58789Z" fill="white"/>
</mask>
<g mask="url(#mask6_29_234)">
<path fill-rule="evenodd" clip-rule="evenodd" d="M1055.2 11.7625L1046.94 27.3045C1046.67 27.8276 1046.14 28.1269 1045.58 28.1356C1045.02 28.1436 1044.5 27.8146 1044.23 27.3136C1044.18 27.2139 1037.92 15.4397 1037.1 13.8872C1036.27 15.4397 1030.01 27.2139 1029.96 27.3136C1029.69 27.8136 1029.17 28.1383 1028.62 28.1356C1028.06 28.1328 1027.53 27.8283 1027.25 27.3045L1018.99 11.7625L1017.16 15.2067L1024.48 28.9295C1025.15 30.1839 1026.34 31.0741 1027.67 31.367C1028.86 31.6273 1030.13 31.3632 1031.15 30.6857C1031.81 30.25 1032.36 29.6436 1032.74 28.9292L1037.1 20.7216L1041.46 28.9292C1042.11 30.1503 1043.25 31.0321 1044.55 31.3425C1045.77 31.6365 1047.08 31.3842 1048.14 30.6734C1048.79 30.2378 1049.34 29.638 1049.71 28.9295L1057.03 15.2067L1055.2 11.7625ZM1012.97 27.2166C1012.97 27.2166 1012.52 28.1313 1011.59 28.1313C1010.64 28.1313 1010.17 27.1856 1010.17 27.1761L1003.1 13.8701L995.961 27.3045C995.666 27.8591 995.047 28.1765 994.45 28.1209C993.805 28.0606 993.267 27.5558 993.113 26.9004C993.019 26.5029 993.072 26.0788 993.262 25.7212L1001.75 9.75615C1001.96 9.34466 1002.34 9.05983 1002.77 8.96115C1003.16 8.87367 1003.57 8.94716 1003.9 9.1613C1004.13 9.30582 1004.32 9.51121 1004.45 9.75545L1011.58 23.1721L1018.71 9.75545C1018.98 9.25263 1019.5 8.92021 1020.05 8.92441C1020.62 8.92862 1021.15 9.23093 1021.43 9.75545L1029.68 25.2855L1031.49 21.8701L1024.2 8.13082C1023.53 6.86694 1022.32 5.97397 1020.98 5.68739C1019.78 5.43301 1018.51 5.70978 1017.49 6.40051C1016.85 6.8344 1016.31 7.43135 1015.94 8.13082L1011.58 16.3383L1007.22 8.12942C1006.8 7.33267 1006.14 6.67379 1005.4 6.2217L1005.39 6.2252C1004.21 5.55967 1002.82 5.39521 1001.55 5.87249C1000.47 6.27769 999.546 7.07968 998.977 8.13152L990.494 24.0983C989.502 25.9664 989.787 28.3724 991.189 29.9244C992.54 31.4206 994.7 31.8796 996.498 31.0541C997.437 30.623 998.23 29.87 998.729 28.9292L1003.1 20.7045L1007.47 28.9302C1008.11 30.1332 1009.22 31.0223 1010.5 31.3376C1011.77 31.6518 1013.15 31.3929 1014.23 30.6157C1014.8 30.2046 1015.28 29.652 1015.64 29.0251L1019.4 21.9663L1017.58 18.5396L1012.97 27.2166ZM1035.7 9.84888C1035.96 9.29286 1036.51 8.93282 1037.1 8.93282C1037.68 8.93282 1038.24 9.29322 1038.49 9.84888L1043.12 18.5554L1044.93 15.1381L1041.15 8.03459C1040.5 6.86659 1039.4 6.01246 1038.14 5.71328C1036.87 5.41131 1035.49 5.67899 1034.42 6.46629C1033.86 6.87604 1033.39 7.41804 1033.04 8.03459L1029.26 15.1381L1031.08 18.5554L1035.7 9.84888ZM1083.7 24.0983L1075.22 8.13152C1074.27 6.37671 1072.3 5.31228 1070.38 5.6503C1069.82 5.74932 1069.17 6.02295 1068.8 6.2217C1068.03 6.63005 1067.39 7.33267 1066.97 8.12942L1062.61 16.3383L1058.25 8.13082C1057.63 6.95371 1056.56 6.12408 1055.33 5.76262C1054.05 5.38577 1052.64 5.6545 1051.53 6.41031C1050.9 6.84349 1050.36 7.43519 1049.99 8.13082L1042.7 21.8701L1044.51 25.2855L1052.76 9.75545C1053.04 9.23233 1053.57 8.93352 1054.13 8.92476C1054.69 8.91566 1055.21 9.25123 1055.48 9.75545L1062.61 23.1721L1069.74 9.75545C1070.02 9.23479 1070.57 8.91077 1071.13 8.92021C1071.68 8.92932 1072.19 9.26208 1072.45 9.75615L1080.93 25.7212C1081.35 26.5014 1081.06 27.5203 1080.31 27.9428C1079.6 28.3479 1078.63 28.052 1078.23 27.3045L1071.09 13.8701L1064.02 27.1761C1064.02 27.1856 1063.55 28.1313 1062.61 28.1313C1061.68 28.1313 1061.22 27.2166 1061.22 27.2166L1056.61 18.5396L1054.79 21.9663L1058.56 29.0251C1059.21 30.1815 1060.28 31.0301 1061.53 31.3379C1062.82 31.657 1064.22 31.3845 1065.31 30.5804C1065.88 30.1538 1066.38 29.5776 1066.72 28.9302L1071.09 20.7045L1075.46 28.9292C1076.37 30.6251 1078.18 31.6298 1080.03 31.4475C1082 31.2519 1083.67 29.7318 1084.15 27.7149C1084.45 26.4976 1084.28 25.1946 1083.7 24.0983Z" fill="#9ca3af"/>
</g>
</g>
<defs>
<clipPath id="clip0_29_234">
<rect width="139" height="22" fill="white" transform="translate(0 7.5)"/>
</clipPath>
<clipPath id="clip1_29_234">
<rect width="75" height="26" fill="white" transform="translate(179 5.5)"/>
</clipPath>
<clipPath id="clip2_29_234">
<rect width="129" height="30" fill="white" transform="translate(658 3.5)"/>
</clipPath>
<clipPath id="clip3_29_234">
<rect width="122" height="28" fill="white" transform="translate(827 4.5)"/>
</clipPath>
<clipPath id="clip4_29_234">
<rect width="96" height="26" fill="white" transform="translate(989 5.5)"/>
</clipPath>
</defs>
</svg>
