<svg width="140" height="40" viewBox="0 0 140 40" fill="none" xmlns="http://www.w3.org/2000/svg">
<path fill-rule="evenodd" clip-rule="evenodd" d="M8.51853 30.6339H21.4815C22.1974 30.6339 22.7778 30.0534 22.7778 29.3374V15.0754C22.7778 14.3593 22.1974 13.7788 21.4815 13.7788H8.51853C7.8026 13.7788 7.22223 14.3593 7.22223 15.0754V29.3374C7.22223 30.0534 7.8026 30.6339 8.51853 30.6339ZM9.81482 16.3719H20.1852V28.0408H9.81482V16.3719Z" fill="white"/>
<path d="M9.81482 16.3719H20.1852V28.0408H9.81482V16.3719Z" fill="#7E868C"/>
<path fill-rule="evenodd" clip-rule="evenodd" d="M9.90011 13.7787C10.1212 12.6876 10.7626 11.7085 11.7097 11.0602L15 8.8085L18.2904 11.0603C19.2374 11.7085 19.8788 12.6876 20.0999 13.7787H9.90011ZM21.4815 16.3718C22.1974 16.3718 22.7778 15.7913 22.7778 15.0753V14.6293C22.7778 12.3489 21.6468 10.2155 19.7545 8.92024L15.8876 6.27392C15.3515 5.909 14.6486 5.909 14.1151 6.2721L10.2456 8.92017C8.35319 10.2155 7.22223 12.3489 7.22223 14.6293V15.0753C7.22223 15.7913 7.8026 16.3718 8.51853 16.3718H21.4815Z" fill="white"/>
<path d="M9.90011 13.7787C10.1212 12.6876 10.7626 11.7085 11.7097 11.0602L15 8.8085L18.2904 11.0603C19.2374 11.7085 19.8788 12.6876 20.0999 13.7787H9.90011Z" fill="#7E868C"/>
<path fill-rule="evenodd" clip-rule="evenodd" d="M8.51851 25.4795H4.62962C3.9137 25.4795 3.33333 26.06 3.33333 26.776C3.33333 27.4921 3.9137 28.0726 4.62962 28.0726H8.51851C9.23444 28.0726 9.81481 27.4921 9.81481 26.776C9.81481 26.06 9.23444 25.4795 8.51851 25.4795Z" fill="white"/>
<path fill-rule="evenodd" clip-rule="evenodd" d="M25.6296 25.4795H21.7407C21.0248 25.4795 20.4444 26.06 20.4444 26.776C20.4444 27.4921 21.0248 28.0726 21.7407 28.0726H25.6296C26.3456 28.0726 26.9259 27.4921 26.9259 26.776C26.9259 26.06 26.3456 25.4795 25.6296 25.4795Z" fill="white"/>
<path fill-rule="evenodd" clip-rule="evenodd" d="M7.50627 32.4924L9.53075 30.1476C9.97798 29.5884 9.88734 28.7725 9.3283 28.3252C8.76926 27.8779 7.95351 27.9685 7.50627 28.5277L5.66666 31.3236C5.21942 31.8827 4.71873 33.2138 5.27777 33.6611C5.83682 34.1084 7.05904 33.0515 7.50627 32.4924Z" fill="white"/>
<path fill-rule="evenodd" clip-rule="evenodd" d="M24.7222 31.3236L22.4937 28.5277C22.0465 27.9685 21.2307 27.8779 20.6717 28.3252C20.1126 28.7725 20.022 29.5884 20.4692 30.1476L23.1667 32.8819C23.6139 33.4411 24.1632 33.7189 24.7222 33.2715C25.2813 32.8242 25.1695 31.8827 24.7222 31.3236Z" fill="white"/>
<path fill-rule="evenodd" clip-rule="evenodd" d="M7.48148 31.4072H2.2963C1.58037 31.4072 1 31.9877 1 32.7038C1 33.4198 1.58037 34.0003 2.2963 34.0003H7.48148C8.19741 34.0003 8.77778 33.4198 8.77778 32.7038C8.77778 31.9877 8.19741 31.4072 7.48148 31.4072Z" fill="white"/>
<path fill-rule="evenodd" clip-rule="evenodd" d="M27.7037 31.4072H22.5185C21.8026 31.4072 21.2222 31.9877 21.2222 32.7038C21.2222 33.4198 21.8026 34.0003 22.5185 34.0003H27.7037C28.4196 34.0003 29 33.4198 29 32.7038C29 31.9877 28.4196 31.4072 27.7037 31.4072Z" fill="white"/>
<path d="M47.616 26.108V30H34.232V11.296H38.656V26.108H47.616ZM48.8992 26.248C48.8992 25.408 49.1232 24.6987 49.5712 24.12C50.0379 23.5227 50.6725 23.0373 51.4752 22.664C52.2965 22.2907 53.2672 22.0013 54.3872 21.796C55.5259 21.572 56.7672 21.4133 58.1112 21.32V20.788C58.1112 19.9853 57.9059 19.4253 57.4952 19.108C57.1032 18.772 56.5339 18.604 55.7872 18.604C55.1899 18.604 54.6765 18.744 54.2472 19.024C53.8179 19.2853 53.5285 19.696 53.3792 20.256L49.7952 18.968C50.2619 18.0347 51.0365 17.26 52.1192 16.644C53.2019 16.028 54.5459 15.72 56.1512 15.72C57.1405 15.72 58.0179 15.8227 58.7832 16.028C59.5485 16.2333 60.1925 16.5693 60.7152 17.036C61.2379 17.5027 61.6299 18.1093 61.8912 18.856C62.1712 19.584 62.3112 20.4707 62.3112 21.516V24.568C62.3112 25.016 62.3205 25.5013 62.3392 26.024C62.3765 26.528 62.4139 27.0227 62.4512 27.508C62.4885 27.9933 62.5352 28.46 62.5912 28.908C62.6472 29.3373 62.7125 29.7013 62.7872 30H58.8392L58.3352 28.32C57.8125 29.048 57.1592 29.5707 56.3752 29.888C55.5912 30.1867 54.6952 30.336 53.6872 30.336C53.0339 30.336 52.4179 30.2427 51.8392 30.056C51.2605 29.8693 50.7472 29.5987 50.2992 29.244C49.8699 28.8893 49.5245 28.46 49.2632 27.956C49.0205 27.452 48.8992 26.8827 48.8992 26.248ZM55.2552 27.424C55.6845 27.424 56.0765 27.3773 56.4312 27.284C56.7859 27.172 57.0939 26.9947 57.3552 26.752C57.6165 26.5093 57.8219 26.1827 57.9712 25.772C58.1205 25.3427 58.1952 24.8107 58.1952 24.176V23.84C57.4672 23.896 56.7952 23.9707 56.1792 24.064C55.5819 24.1573 55.0685 24.288 54.6392 24.456C54.2099 24.6053 53.8739 24.8013 53.6312 25.044C53.4072 25.268 53.2952 25.5667 53.2952 25.94C53.2952 26.388 53.4819 26.752 53.8552 27.032C54.2285 27.2933 54.6952 27.424 55.2552 27.424ZM65.107 30V16.112H68.831L69.363 17.96C69.5124 17.6987 69.7177 17.4373 69.979 17.176C70.259 16.9147 70.5764 16.6813 70.931 16.476C71.3044 16.252 71.715 16.0747 72.163 15.944C72.6297 15.7947 73.1244 15.72 73.647 15.72C74.543 15.72 75.2897 15.8507 75.887 16.112C76.4844 16.3547 76.9604 16.728 77.315 17.232C77.6884 17.7173 77.9497 18.324 78.099 19.052C78.2484 19.78 78.323 20.6107 78.323 21.544V30H74.067V22.608C74.067 22.1227 74.0484 21.6653 74.011 21.236C73.9924 20.788 73.9084 20.4053 73.759 20.088C73.6284 19.752 73.4137 19.4907 73.115 19.304C72.835 19.1173 72.443 19.024 71.939 19.024C71.043 19.024 70.3897 19.3507 69.979 20.004C69.5684 20.6387 69.363 21.5907 69.363 22.86V30H65.107ZM86.3157 15.72C86.6891 15.72 87.0811 15.7667 87.4917 15.86C87.9024 15.9533 88.2944 16.1027 88.6677 16.308C89.0411 16.4947 89.3864 16.728 89.7037 17.008C90.0397 17.288 90.3197 17.624 90.5437 18.016V11.296H94.7997V24.568C94.7997 25.2773 94.8277 26.108 94.8837 27.06C94.9397 27.9933 95.0704 28.9733 95.2757 30H91.2157L90.6557 28.124C90.0584 28.9267 89.3771 29.496 88.6117 29.832C87.8464 30.168 87.0811 30.336 86.3157 30.336C85.4197 30.336 84.5984 30.168 83.8517 29.832C83.1051 29.4773 82.4517 28.9827 81.8917 28.348C81.3504 27.6947 80.9304 26.92 80.6317 26.024C80.3331 25.1093 80.1837 24.0827 80.1837 22.944C80.1837 21.8053 80.3331 20.788 80.6317 19.892C80.9304 18.996 81.3504 18.24 81.8917 17.624C82.4517 17.008 83.1051 16.5413 83.8517 16.224C84.5984 15.888 85.4197 15.72 86.3157 15.72ZM87.6877 27.032C88.0984 27.032 88.4904 26.9573 88.8637 26.808C89.2371 26.6587 89.5637 26.4253 89.8437 26.108C90.1237 25.7907 90.3384 25.38 90.4877 24.876C90.6557 24.372 90.7397 23.756 90.7397 23.028C90.7397 22.3187 90.6557 21.712 90.4877 21.208C90.3384 20.704 90.1237 20.2933 89.8437 19.976C89.5637 19.64 89.2371 19.3973 88.8637 19.248C88.4904 19.0987 88.0984 19.024 87.6877 19.024C86.8477 19.024 86.1197 19.36 85.5037 20.032C84.9064 20.6853 84.6077 21.656 84.6077 22.944C84.6077 24.232 84.9064 25.24 85.5037 25.968C86.1197 26.6773 86.8477 27.032 87.6877 27.032ZM96.8634 22.972C96.8634 21.8707 97.0594 20.872 97.4514 19.976C97.8434 19.08 98.3754 18.3147 99.0474 17.68C99.7381 17.0453 100.531 16.56 101.427 16.224C102.342 15.888 103.303 15.72 104.311 15.72C105.45 15.72 106.477 15.9347 107.391 16.364C108.306 16.7747 109.071 17.3533 109.687 18.1C110.303 18.828 110.761 19.7053 111.059 20.732C111.377 21.7587 111.498 22.888 111.423 24.12H101.147C101.185 24.6053 101.297 25.0347 101.483 25.408C101.689 25.7627 101.931 26.0613 102.211 26.304C102.51 26.5467 102.846 26.7333 103.219 26.864C103.593 26.976 103.975 27.032 104.367 27.032C105.021 27.032 105.581 26.9387 106.047 26.752C106.533 26.5653 106.906 26.3133 107.167 25.996L110.555 27.228C109.827 28.292 108.913 29.076 107.811 29.58C106.729 30.084 105.618 30.336 104.479 30.336C103.359 30.336 102.333 30.168 101.399 29.832C100.466 29.496 99.6634 29.0107 98.9914 28.376C98.3194 27.7413 97.7967 26.9667 97.4234 26.052C97.0501 25.1373 96.8634 24.1107 96.8634 22.972ZM101.147 21.6H107.475C107.438 20.704 107.13 20.032 106.551 19.584C105.973 19.1173 105.263 18.884 104.423 18.884C103.621 18.884 102.902 19.0987 102.267 19.528C101.651 19.9573 101.278 20.648 101.147 21.6ZM116.811 16.112L117.567 18.66C117.996 17.54 118.584 16.756 119.331 16.308C120.077 15.86 120.983 15.664 122.047 15.72V19.976C121.823 19.9387 121.627 19.92 121.459 19.92C121.291 19.9013 121.104 19.892 120.899 19.892C119.853 19.892 119.06 20.1347 118.519 20.62C117.977 21.0867 117.707 21.88 117.707 23V30H113.451V16.112H116.811ZM126.669 25.492C126.874 26.0893 127.266 26.528 127.845 26.808C128.442 27.088 129.142 27.228 129.945 27.228C130.635 27.228 131.242 27.1253 131.765 26.92C132.306 26.696 132.577 26.3693 132.577 25.94C132.577 25.6413 132.418 25.3987 132.101 25.212C131.783 25.0067 131.223 24.8293 130.421 24.68L127.929 24.26C126.585 24.036 125.493 23.588 124.653 22.916C123.813 22.2253 123.393 21.292 123.393 20.116C123.393 19.388 123.561 18.7533 123.897 18.212C124.251 17.652 124.718 17.1947 125.297 16.84C125.875 16.4667 126.547 16.1867 127.313 16C128.097 15.8133 128.918 15.72 129.777 15.72C130.449 15.72 131.093 15.776 131.709 15.888C132.343 16 132.931 16.1867 133.473 16.448C134.014 16.6907 134.49 17.008 134.901 17.4C135.33 17.792 135.675 18.2587 135.937 18.8L132.353 20.116C132.203 19.612 131.886 19.276 131.401 19.108C130.934 18.9213 130.383 18.828 129.749 18.828C128.218 18.828 127.453 19.2013 127.453 19.948C127.453 20.228 127.583 20.4613 127.845 20.648C128.106 20.816 128.545 20.956 129.161 21.068L131.737 21.544C133.417 21.8427 134.658 22.2813 135.461 22.86C136.263 23.4387 136.665 24.3067 136.665 25.464C136.665 26.2853 136.478 27.004 136.105 27.62C135.75 28.2173 135.265 28.7213 134.649 29.132C134.033 29.5427 133.314 29.8413 132.493 30.028C131.671 30.2333 130.794 30.336 129.861 30.336C128.218 30.336 126.809 30.0467 125.633 29.468C124.457 28.8707 123.598 27.984 123.057 26.808L126.669 25.492Z" fill="white"/>
</svg>
